<svg xmlns="http://www.w3.org/2000/svg" width="52.33" height="48.33" viewBox="0 0 52.33 48.33">
  <g id="_Group_" data-name="&lt;Group&gt;" transform="translate(0.5 0.5)">
    <path id="_Path_" data-name="&lt;Path&gt;" d="M23.109.5.5,4.848v31.3L23.109,40.5Z" transform="translate(-0.5 -0.5)" fill="none" stroke="#303c42" stroke-linecap="round" stroke-linejoin="round" stroke-width="1"/>
    <rect id="_Rectangle_" data-name="&lt;Rectangle&gt;" width="1.739" height="6.957" transform="translate(38.261 16.522)" stroke-width="1" stroke="#303c42" stroke-linecap="round" stroke-linejoin="round" fill="none"/>
    <rect id="_Rectangle_2" data-name="&lt;Rectangle&gt;" width="1.739" height="6.957" transform="translate(38.261 26.957)" stroke-width="1" stroke="#303c42" stroke-linecap="round" stroke-linejoin="round" fill="none"/>
    <path id="_Path_2" data-name="&lt;Path&gt;" d="M29.152,4.37V3.5H13.5V33.065H29.152V11.326h1.739V4.37Z" transform="translate(9.109 1.717)" fill="none" stroke="#303c42" stroke-linecap="round" stroke-linejoin="round" stroke-width="1"/>
    <line id="_Path_3" data-name="&lt;Path&gt;" x2="12.174" transform="translate(22.609 9.565)" fill="none" stroke="#303c42" stroke-linecap="round" stroke-linejoin="round" stroke-width="1"/>
    <line id="_Path_4" data-name="&lt;Path&gt;" x2="12.174" transform="translate(22.609 14.783)" fill="none" stroke="#303c42" stroke-linecap="round" stroke-linejoin="round" stroke-width="1"/>
    <line id="_Path_5" data-name="&lt;Path&gt;" x2="12.174" transform="translate(22.609 20)" fill="none" stroke="#303c42" stroke-linecap="round" stroke-linejoin="round" stroke-width="1"/>
    <line id="_Path_6" data-name="&lt;Path&gt;" x2="12.174" transform="translate(22.609 25.217)" fill="none" stroke="#303c42" stroke-linecap="round" stroke-linejoin="round" stroke-width="1"/>
    <line id="_Path_7" data-name="&lt;Path&gt;" x2="12.174" transform="translate(22.609 30.435)" fill="none" stroke="#303c42" stroke-linecap="round" stroke-linejoin="round" stroke-width="1"/>
    <path id="_Path_8" data-name="&lt;Path&gt;" d="M3.5,22.283V8.37L13.935,23.152V7.5" transform="translate(1.717 4.674)" fill="none" stroke="#303c42" stroke-linecap="round" stroke-linejoin="round" stroke-width="1"/>
    <g id="Layer_15" data-name="Layer 15" transform="translate(27.83 23.83)">
      <path id="Path_9" data-name="Path 9" d="M12.5,24A11.5,11.5,0,1,1,24,12.5,11.5,11.5,0,0,1,12.5,24Zm0-21.467A9.967,9.967,0,1,0,22.467,12.5,9.967,9.967,0,0,0,12.5,2.533Z" transform="translate(0 0)" fill="#101820"/>
      <g id="Ellipse_2" data-name="Ellipse 2" transform="translate(1 1)" fill="#fff" stroke="#101820" stroke-width="1">
        <circle cx="11.5" cy="11.5" r="11.5" stroke="none"/>
        <circle cx="11.5" cy="11.5" r="11" fill="none"/>
      </g>
      <path id="Path_10" data-name="Path 10" d="M19.017,18.473l-3.8-3.8A.767.767,0,0,1,15,14.133V8h1.533v5.819l3.573,3.565Z" transform="translate(-3.267 -1.633)" fill="#101820"/>
    </g>
  </g>
</svg>
