<svg xmlns="http://www.w3.org/2000/svg" width="40" height="40" viewBox="0 0 40 40">
  <g id="Icon-Gear" transform="translate(0 0)">
    <path id="Fill-45" d="M-195.8-386.308a9.54,9.54,0,0,1-9.5-9.5,9.54,9.54,0,0,1,9.5-9.5,9.54,9.54,0,0,1,9.5,9.5,9.54,9.54,0,0,1-9.5,9.5Zm0-16.975a7.5,7.5,0,0,0-7.479,7.479,7.5,7.5,0,0,0,7.479,7.479,7.5,7.5,0,0,0,7.479-7.479,7.5,7.5,0,0,0-7.479-7.479Z" transform="translate(215.804 415.72)" fill="#134563"/>
    <path id="Fill-46" d="M-194.943-377.7h-5.714l-1.6-4.874a20.062,20.062,0,0,1-3.109-1.26l-4.622,2.353-4.034-4.034,2.353-4.622a14.2,14.2,0,0,1-1.261-3.109l-4.874-1.6v-5.714l4.874-1.6a20.066,20.066,0,0,1,1.261-3.109l-2.353-4.622,4.034-4.034,4.622,2.353a14.2,14.2,0,0,1,3.109-1.26l1.6-4.874h5.714l1.6,4.874a20.062,20.062,0,0,1,3.109,1.26l4.622-2.353,4.034,4.034-2.353,4.622a14.2,14.2,0,0,1,1.26,3.109l4.874,1.6v5.714l-4.874,1.6a20.064,20.064,0,0,1-1.26,3.109l2.353,4.622-4.034,4.034-4.622-2.353a14.2,14.2,0,0,1-3.109,1.26l-1.6,4.874Zm-4.286-1.933h2.857l1.513-4.538.5-.168a15,15,0,0,0,3.613-1.513l.5-.252,4.286,2.185,2.017-2.017-2.185-4.286.252-.5a13.712,13.712,0,0,0,1.513-3.613l.168-.5,4.538-1.513v-2.857l-4.538-1.513-.168-.5a13.711,13.711,0,0,0-1.513-3.613l-.252-.5,2.185-4.286-2.017-2.017-4.286,2.185-.5-.252a13.712,13.712,0,0,0-3.613-1.513l-.5-.168-1.513-4.538h-2.857l-1.513,4.538-.5.168a15,15,0,0,0-3.613,1.513l-.5.252-4.286-2.185-2.017,2.017,2.185,4.286-.252.5a13.711,13.711,0,0,0-1.513,3.613l-.168.5-4.538,1.513v2.857l4.538,1.513.168.5a13.711,13.711,0,0,0,1.513,3.613l.252.5-2.185,4.286,2.017,2.017,4.286-2.185.5.252a13.711,13.711,0,0,0,3.613,1.513l.5.168,1.513,4.538Z" transform="translate(217.8 417.7)" fill="#134563"/>
  </g>
</svg>
