<svg id="icon-53-notebook-list" xmlns="http://www.w3.org/2000/svg" width="29.231" height="40" viewBox="0 0 29.231 40">
  <path id="notebook-list" d="M29.077,4.538H24.462V3H22.923V4.538H18.308V3H16.769V4.538H12.154V3H10.615V4.538H9.073A3.071,3.071,0,0,0,6,7.621v32.3A3.074,3.074,0,0,0,9.073,43H32.158a3.071,3.071,0,0,0,3.073-3.082V7.621a3.074,3.074,0,0,0-3.073-3.082H30.615V3H29.077V4.538Zm0,1.538H24.462V7.615H22.923V6.077H18.308V7.615H16.769V6.077H12.154V7.615H10.615V6.077H9.077A1.531,1.531,0,0,0,7.538,7.62v32.3a1.548,1.548,0,0,0,1.538,1.543H32.154a1.531,1.531,0,0,0,1.538-1.543V7.62a1.548,1.548,0,0,0-1.538-1.543H30.615V7.615H29.077V6.077ZM18.308,16.846v1.538H30.615V16.846Zm-7.692-1.538v4.615h4.615V15.308Zm1.538,1.538v1.538h1.538V16.846ZM10.615,23v4.615h4.615V23Zm1.538,1.538v1.538h1.538V24.538Zm6.154,0v1.538H30.615V24.538Zm-7.692,6.154v4.615h4.615V30.692Zm1.538,1.538v1.538h1.538V32.231Zm6.154,0v1.538H30.615V32.231Z" transform="translate(-6 -3)" fill="#303c42" fill-rule="evenodd"/>
</svg>
