<svg xmlns="http://www.w3.org/2000/svg" width="103" height="103" viewBox="0 0 103 103">
  <g id="iconfinder_plus_1814113" transform="translate(-8.1 -8.1)">
    <g id="Icon-Plus" transform="translate(8.1 8.1)">
      <path id="Fill-38" d="M31.6-166.9a51.5,51.5,0,0,1-51.5-51.5,51.5,51.5,0,0,1,51.5-51.5,51.5,51.5,0,0,1,51.5,51.5,51.5,51.5,0,0,1-51.5,51.5Zm0-97.4a46.074,46.074,0,0,0-45.9,45.9,46.074,46.074,0,0,0,45.9,45.9,46.074,46.074,0,0,0,45.9-45.9,46.074,46.074,0,0,0-45.9-45.9Z" transform="translate(19.9 269.9)" fill="#707070"/>
      <path id="Fill-39" d="M-8.7-247.4H45.5v6.1H-8.7Z" transform="translate(33.102 295.85)" fill="#707070"/>
      <path id="Fill-40" d="M2.6-258.7H8.7v54.2H2.6Z" transform="translate(45.85 283.102)" fill="#707070"/>
    </g>
  </g>
</svg>
